<svg width="208" height="22" viewBox="0 0 208 22" fill="none" xmlns="http://www.w3.org/2000/svg">
<path d="M16.4688 20.7344H14.1719L12.25 14.9062H4.1875L2.29688 20.7344H0L6.78125 0.34375H9.6875L16.4688 20.7344ZM11.6406 13.0156L8.21875 2.5L4.79688 13.0156H11.6406ZM32.1875 20.7344H19.1562V0.34375H32.1875V2.17188H21.2969V9.46875H29.3281V11.2969H21.2969V18.9062H32.1875V20.7344ZM50.6094 20.7344H47.8906L41.9375 12H38.7656V20.7344H36.625V0.34375H43.3438C45.5833 0.34375 47.3177 0.833333 48.5469 1.8125C49.776 2.78125 50.3906 4.23438 50.3906 6.17188C50.3906 7.02604 50.2396 7.79688 49.9375 8.48438C49.6354 9.16146 49.224 9.73958 48.7031 10.2188C48.1823 10.6979 47.5573 11.0833 46.8281 11.375C46.1094 11.6667 45.3229 11.8438 44.4688 11.9062L50.6094 20.7344ZM48.1719 6.17188C48.1719 4.78646 47.7396 3.77604 46.875 3.14062C46.0208 2.49479 44.8438 2.17188 43.3438 2.17188H38.7656V10.1719H43.3438C44.8438 10.1719 46.0208 9.85938 46.875 9.23438C47.7396 8.59896 48.1719 7.57812 48.1719 6.17188ZM68.875 20.7344H66.5781L64.6562 14.9062H56.5938L54.7031 20.7344H52.4062L59.1875 0.34375H62.0938L68.875 20.7344ZM64.0469 13.0156L60.625 2.5L57.2031 13.0156H64.0469ZM102.797 6.17188C102.797 8.14062 102.182 9.60417 100.953 10.5625C99.724 11.5208 98 12 95.7812 12H91.1719V20.7344H89.0312V0.34375H95.75C97.9896 0.34375 99.724 0.833333 100.953 1.8125C102.182 2.78125 102.797 4.23438 102.797 6.17188ZM100.656 6.17188C100.656 4.76562 100.214 3.75 99.3281 3.125C98.4427 2.48958 97.2604 2.17188 95.7812 2.17188H91.1719V10.1719H95.7812C97.2604 10.1719 98.4427 9.85938 99.3281 9.23438C100.214 8.59896 100.656 7.57812 100.656 6.17188ZM120.484 20.7344H117.766L111.812 12H108.641V20.7344H106.5V0.34375H113.219C115.458 0.34375 117.193 0.833333 118.422 1.8125C119.651 2.78125 120.266 4.23438 120.266 6.17188C120.266 7.02604 120.115 7.79688 119.812 8.48438C119.51 9.16146 119.099 9.73958 118.578 10.2188C118.057 10.6979 117.432 11.0833 116.703 11.375C115.984 11.6667 115.198 11.8438 114.344 11.9062L120.484 20.7344ZM118.047 6.17188C118.047 4.78646 117.615 3.77604 116.75 3.14062C115.896 2.49479 114.719 2.17188 113.219 2.17188H108.641V10.1719H113.219C114.719 10.1719 115.896 9.85938 116.75 9.23438C117.615 8.59896 118.047 7.57812 118.047 6.17188ZM138.312 10.5625C138.312 11.9271 138.172 13.2448 137.891 14.5156C137.609 15.7865 137.161 16.9062 136.547 17.875C135.932 18.8438 135.125 19.625 134.125 20.2188C133.135 20.8021 131.927 21.0938 130.5 21.0938C129.073 21.0938 127.859 20.8021 126.859 20.2188C125.87 19.625 125.062 18.8438 124.438 17.875C123.823 16.9062 123.38 15.7865 123.109 14.5156C122.828 13.2448 122.688 11.9271 122.688 10.5625C122.688 9.19792 122.828 7.88021 123.109 6.60938C123.38 5.33854 123.828 4.21354 124.453 3.23438C125.089 2.25521 125.901 1.47396 126.891 0.890625C127.891 0.296875 129.094 0 130.5 0C131.906 0 133.104 0.296875 134.094 0.890625C135.094 1.47396 135.901 2.25521 136.516 3.23438C137.13 4.21354 137.583 5.33854 137.875 6.60938C138.167 7.88021 138.312 9.19792 138.312 10.5625ZM136.156 10.5625C136.156 9.21875 136.026 8.01042 135.766 6.9375C135.516 5.85417 135.151 4.93229 134.672 4.17188C134.193 3.41146 133.599 2.83333 132.891 2.4375C132.193 2.03125 131.396 1.82812 130.5 1.82812C129.385 1.82812 128.464 2.08854 127.734 2.60938C127.016 3.13021 126.438 3.8125 126 4.65625C125.562 5.5 125.255 6.4375 125.078 7.46875C124.911 8.5 124.828 9.53125 124.828 10.5625C124.828 11.5833 124.911 12.6146 125.078 13.6562C125.255 14.6875 125.562 15.6198 126 16.4531C126.438 17.276 127.016 17.9531 127.734 18.4844C128.464 19.0052 129.385 19.2656 130.5 19.2656C131.604 19.2656 132.521 19.0052 133.25 18.4844C133.979 17.9531 134.562 17.276 135 16.4531C135.438 15.6198 135.74 14.6875 135.906 13.6562C136.073 12.6146 136.156 11.5833 136.156 10.5625ZM154.469 12.9531C154.469 15.5365 153.917 17.5417 152.812 18.9688C151.719 20.3854 150.042 21.0938 147.781 21.0938C145.969 21.0938 144.448 20.6198 143.219 19.6719C141.99 18.7135 141.13 17.2865 140.641 15.3906L142.5 14.6875C142.948 16.375 143.615 17.5625 144.5 18.25C145.385 18.9271 146.479 19.2656 147.781 19.2656C148.74 19.2656 149.516 19.0729 150.109 18.6875C150.714 18.3021 151.172 17.8125 151.484 17.2188C151.807 16.6146 152.026 15.9427 152.141 15.2031C152.255 14.4531 152.312 13.7031 152.312 12.9531V0.34375H154.469V12.9531ZM171.938 20.7344H158.906V0.34375H171.938V2.17188H161.047V9.46875H169.078V11.2969H161.047V18.9062H171.938V20.7344ZM190.297 15.3906C189.766 17.1406 188.896 18.5312 187.688 19.5625C186.479 20.5833 184.958 21.0938 183.125 21.0938C181.698 21.0938 180.49 20.8021 179.5 20.2188C178.51 19.625 177.698 18.8438 177.062 17.875C176.438 16.9062 175.984 15.7865 175.703 14.5156C175.432 13.2448 175.297 11.9271 175.297 10.5625C175.297 9.19792 175.432 7.88021 175.703 6.60938C175.984 5.33854 176.438 4.21354 177.062 3.23438C177.698 2.25521 178.51 1.47396 179.5 0.890625C180.49 0.296875 181.698 0 183.125 0C184.385 0 185.464 0.223958 186.359 0.671875C187.255 1.11979 187.917 1.80208 188.344 2.71875V0.34375H190.172V7.03125H188.344C188.344 6.3125 188.203 5.63542 187.922 5C187.651 4.35417 187.281 3.79688 186.812 3.32812C186.344 2.85938 185.786 2.49479 185.141 2.23438C184.505 1.96354 183.833 1.82812 183.125 1.82812C182.021 1.82812 181.104 2.08854 180.375 2.60938C179.656 3.13021 179.078 3.8125 178.641 4.65625C178.203 5.5 177.891 6.4375 177.703 7.46875C177.526 8.5 177.438 9.53125 177.438 10.5625C177.438 11.5833 177.526 12.6146 177.703 13.6562C177.891 14.6875 178.203 15.6198 178.641 16.4531C179.078 17.276 179.656 17.9531 180.375 18.4844C181.104 19.0052 182.021 19.2656 183.125 19.2656C185.667 19.2656 187.438 17.7292 188.438 14.6562L190.297 15.3906ZM207.641 7.23438H205.812V2.17188H201.438V18.9062H204.719V20.7344H195.984V18.9062H199.281V2.17188H194.906V7.23438H193.078V0.34375H207.641V7.23438Z" fill="black"/>
</svg>
